<?xml version="1.0" encoding="utf-8"?>
<!-- Generator: Adobe Illustrator 25.4.1, SVG Export Plug-In . SVG Version: 6.00 Build 0)  -->
<svg version="1.1" id="Layer_1" xmlns="http://www.w3.org/2000/svg" xmlns:xlink="http://www.w3.org/1999/xlink" x="0px" y="0px"
	 viewBox="0 0 500 600" style="enable-background:new 0 0 500 600;" xml:space="preserve">
<style type="text/css">
	.st0{fill-rule:evenodd;clip-rule:evenodd;}
	.st1{fill-rule:evenodd;clip-rule:evenodd;fill:#FFFFFF;}
</style>
<g id="Layer_2_00000129170110350406848310000007232888642180995513_">
	<g id="Layer_1-2">
		<path class="st0" d="M364.9,181.1c-27.9-10-55.8-18.9-83.7-28.9c0,0-164.4,13-231.2,143.5c113.6-60.8,153.5-26.9,192.3-7
			c33.9-5,75.7-14.9,109.6-20.9c21.9-5,62.8,13,20.9,63.8c25.9-9,48.8-39.9,50.8-90.7c0,0,19.9-21.9,19.9-34.9
			c0,0-27.9-24.9-84.7-31.9C363.9,180.1,358.9,175.1,364.9,181.1L364.9,181.1z"/>
		<path class="st1" d="M316.1,187.1c0,0-7,8-29.9,0c-22.9-8-49.8,2-49.8,2h19.9c0,0,6,30.9,29.9,23.9c0,0-8,5-15.9,6
			C270.2,219,314.1,221,316.1,187.1L316.1,187.1z"/>
		<path class="st0" d="M439.7,234.9c0,0,23.9,53.8-1,77.7c0,0-1-44.8-13-45.8c0,0,6-15,4-23.9L439.7,234.9z"/>
		<path class="st0" d="M401.8,421.3c0,0-50.8,15-91.7-42.9C227.4,263.8,113.8,276.8,58,357.5c38.9-20.9,87.7-8,133.5,10
			C229.4,382.4,358.9,499,401.8,421.3L401.8,421.3z"/>
		<path class="st0" d="M399.8,424.3c0,0,12-15.9,6-27.9c-18.9,22.9-25.9,27.9-51.8,19.9C354,416.3,369.9,433.2,399.8,424.3
			L399.8,424.3z"/>
	</g>
</g>
</svg>
