<?xml version="1.0" encoding="utf-8"?>
<!-- Generator: Adobe Illustrator 25.4.1, SVG Export Plug-In . SVG Version: 6.00 Build 0)  -->
<svg version="1.1" id="Layer_1" xmlns="http://www.w3.org/2000/svg" xmlns:xlink="http://www.w3.org/1999/xlink" x="0px" y="0px"
	 viewBox="0 0 500 600" style="enable-background:new 0 0 500 600;" xml:space="preserve">
<style type="text/css">
	.st0{fill-rule:evenodd;clip-rule:evenodd;}
	.st1{fill-rule:evenodd;clip-rule:evenodd;fill:#FFFFFF;}
</style>
<g id="Layer_2_00000110436667185207750280000017214736063057451936_">
	<g id="Layer_1-2">
		<path class="st0" d="M429.6,147.5c0,0-20-30.1-70.2-14.5c-49,15.6-94.7,92.4-189.3,66.8c0,0-79.1-7.8-127,40.1
			c0,0,62.4-101.3,150.4-121.4c0,0-4.5,17.8-8.9,22.3c0,0,18.9-12.2,20.1-30.1c1.1-18.9,25.6-20,82.4-2.2l20,2.2l-36.8-14.5
			c81.3-2.2,105.8-11.1,145.9-39C416.2,57.3,450.8,87.4,429.6,147.5L429.6,147.5z"/>
		<path class="st1" d="M214.6,135.3l-16.7,13.4c29-14.5,59,7.8,95.8-16.7C271.4,129.7,215.8,95.2,214.6,135.3L214.6,135.3z"/>
		<path class="st0" d="M330.5,393.7c0,0-47.9-6.7-60.1-70.2C245.8,198.8,130,204.3,54.3,248.9c-20.1,12.2-22.3,36.7-11.1,66.8
			C76.5,410.4,167.9,497.2,300.4,534c-46.8-40.1-239.4-218.3-168.2-282.9c-8.9-2.2-17.8-3.3-26.7-5.6c0,0,45.7-2.2,71.3,24.5
			S265.9,442.7,330.5,393.7L330.5,393.7z"/>
		<path class="st0" d="M361.7,202.1c0,0-10,17.8-22.3,26.7c-13.4,8.9-36.8,43.4-6.7,94.7c0,0-32.3-33.4-25.6-62.4
			C314.9,233.3,346.1,223.3,361.7,202.1L361.7,202.1z"/>
		<path class="st0" d="M327.1,384.8c0,0,16.7-6.7,17.8-20.1c-25.6,10-33.4,10-50.1-8.9C294.8,355.8,299.3,377,327.1,384.8
			L327.1,384.8z"/>
		<path class="st0" d="M381.7,142c0,0-11.1,53.4-50.1,50.1c0,0,25.6-14.5,18.9-35.6l-12.3,1.1C338.3,157.6,366.1,133.1,381.7,142
			L381.7,142z"/>
		<path class="st0" d="M424,152c-13.4-8.9-16.7-6.7-34.5-5.6l13.4,10c0,0-1.1,30.1-20,50.1C382.8,206.6,414,208.8,424,152z"/>
		<path class="st0" d="M362.8,370.3c0,0,16.7-6.7,17.8-18.9c-25.6,10-33.4,10-49-8.9C331.6,342.4,334.9,363.6,362.8,370.3
			L362.8,370.3z"/>
	</g>
</g>
</svg>
