<?xml version="1.0" encoding="utf-8"?>
<!-- Generator: Adobe Illustrator 25.4.1, SVG Export Plug-In . SVG Version: 6.00 Build 0)  -->
<svg version="1.1" id="Layer_1" xmlns="http://www.w3.org/2000/svg" xmlns:xlink="http://www.w3.org/1999/xlink" x="0px" y="0px"
	 viewBox="0 0 500 600" style="enable-background:new 0 0 500 600;" xml:space="preserve">
<style type="text/css">
	.st0{fill-rule:evenodd;clip-rule:evenodd;}
	.st1{fill-rule:evenodd;clip-rule:evenodd;fill:#FFFFFF;}
</style>
<g id="Layer_2_00000076591390388834424960000001616893985570908853_">
	<g id="Layer_1-2">
		<path class="st0" d="M419.7,227.3c18.9-121.2-78.3,31.6-166.7,48c-48,8.8-7.6-61.9-58.1-31.6C115.5,280.3,72.5,324.5,70,404
			c-83.3-178,117.4-251.2,167.9-263.9c15.2-3.8,160.3,5,210.8,1.3C452.6,178,448.8,212.1,419.7,227.3L419.7,227.3z"/>
		<path class="st0" d="M385.6,176.8c0,0,15.2,64.4-15.2,87.1c0,0,6.3-48-25.2-59.3C345.2,204.5,378.1,184.3,385.6,176.8L385.6,176.8
			z"/>
		<path class="st0" d="M282.1,287.9c25.3,35.4,59.3,111.1,111.1,82.1c0,0,6.3,18.9-17.7,30.3c-18.9,8.8-79.5-27.8-117.4-44.2
			c-8.8-3.8-16.4-7.6-22.7-7.6l-36.6-12.6l18.9,15.2c-39.1,8.9-114.9,45.5-109.9,109.9c-53-98.5,97.2-194.4,92.2-164.1
			C193.7,327,258.1,306.8,282.1,287.9L282.1,287.9z"/>
		<path class="st0" d="M355.3,377.5c0,0,18.9-6.3,16.4-20.2c-25.3,11.4-31.6,8.8-53-8.8C318.7,348.5,323.7,373.7,355.3,377.5
			L355.3,377.5z"/>
		<path class="st0" d="M355.3,253.8c0,0-31.6,7.6-16.4,32.8c15.2,24,45.4,60.6,45.4,60.6S268.2,257.5,355.3,253.8L355.3,253.8z"/>
		<path class="st1" d="M301,159.1c0,0-5.1,7.6-27.8,3.8c-22.7-3.8-46.7,8.8-46.7,8.8l18.9-2.5c0,0,10.1,27.8,31.6,17.7
			c0,0-6.3,5.1-13.9,7.6C263.2,194.5,304.8,189.4,301,159.1z"/>
		<path class="st0" d="M393.2,380c0,0,8.8-21.5,0-31.6c-8.8,34.1-16.4,37.9-45.4,31.6C347.8,380,366.7,396.4,393.2,380z"/>
	</g>
</g>
</svg>
